<svg width="17" height="19" viewBox="0 0 17 19" fill="none" xmlns="http://www.w3.org/2000/svg">
<g clip-path="url(#clip0_2210_595)">
<path fill-rule="evenodd" clip-rule="evenodd" d="M6.92926 4.18388C7.09684 4.06732 7.29609 4.00485 7.50023 4.00485C7.70436 4.00485 7.90361 4.06732 8.0712 4.18388C8.23879 4.30043 8.36669 4.46549 8.43773 4.65686L8.43813 4.65796L9.63813 7.91421L9.63959 7.9165L9.64185 7.91794L12.8992 9.11836C13.0906 9.18939 13.2556 9.3173 13.3722 9.48489C13.4888 9.65248 13.5512 9.85172 13.5512 10.0559C13.5512 10.26 13.4888 10.4592 13.3722 10.6268C13.2556 10.7944 13.0906 10.9223 12.8992 10.9933L12.8981 10.9938L9.64187 12.1938L9.63959 12.1952L9.63814 12.1975L8.43813 15.4537L8.43773 15.4548C8.36669 15.6462 8.23878 15.8113 8.0712 15.9278C7.90361 16.0444 7.70436 16.1069 7.50023 16.1069C7.29609 16.1069 7.09684 16.0444 6.92926 15.9278C6.76167 15.8113 6.63376 15.6462 6.56273 15.4548L6.56232 15.4537L5.36232 12.1975L5.36087 12.1952L5.35984 12.1944L5.35861 12.1938L2.10233 10.9938L2.10123 10.9933C1.90986 10.9223 1.7448 10.7944 1.62825 10.6268C1.51169 10.4592 1.44922 10.26 1.44922 10.0559C1.44922 9.85172 1.51169 9.65248 1.62825 9.48489C1.7448 9.3173 1.90986 9.18939 2.10123 9.11836L2.10233 9.11795L5.35858 7.91795L5.36087 7.9165L5.36231 7.91424L6.56232 4.65796L6.56273 4.65686C6.63376 4.46549 6.76167 4.30043 6.92926 4.18388ZM8.69982 11.8517C8.75016 11.7151 8.82954 11.591 8.93248 11.4881C9.03542 11.3852 9.15947 11.3058 9.29608 11.2554L12.5512 10.0559L9.29611 8.85627C9.1595 8.80593 9.03542 8.72655 8.93248 8.6236C8.82954 8.52066 8.75016 8.39661 8.69982 8.26L7.50023 5.00485L6.30064 8.25998C6.2503 8.39658 6.17092 8.52066 6.06797 8.6236C5.96503 8.72655 5.84097 8.80593 5.70437 8.85626L2.44922 10.0559L5.70435 11.2554C5.84095 11.3058 5.96503 11.3852 6.06797 11.4881C6.17091 11.591 6.25029 11.7151 6.30063 11.8517L7.50023 15.1069L8.69982 11.8517Z" fill="#222B31"/>
<path fill-rule="evenodd" clip-rule="evenodd" d="M11.5 1.55588C11.7762 1.55588 12 1.77974 12 2.05587V5.05587C12 5.33202 11.7762 5.55587 11.5 5.55587C11.2239 5.55587 11 5.33202 11 5.05587V2.05587C11 1.77974 11.2239 1.55588 11.5 1.55588Z" fill="#222B31"/>
<path fill-rule="evenodd" clip-rule="evenodd" d="M9.5 3.55588C9.5 3.27974 9.72386 3.05588 9.99996 3.05588H13C13.2762 3.05588 13.5 3.27974 13.5 3.55588C13.5 3.83203 13.2762 4.05588 13 4.05588H9.99996C9.72386 4.05588 9.5 3.83203 9.5 3.55588Z" fill="#222B31"/>
<path fill-rule="evenodd" clip-rule="evenodd" d="M14.5 5.05588C14.7762 5.05588 15 5.27974 15 5.55588V7.55589C15 7.83203 14.7762 8.05589 14.5 8.05589C14.2239 8.05589 14 7.83203 14 7.55589V5.55588C14 5.27974 14.2239 5.05588 14.5 5.05588Z" fill="#222B31"/>
<path fill-rule="evenodd" clip-rule="evenodd" d="M13 6.55588C13 6.27974 13.2239 6.05588 13.5 6.05588H15.5C15.7762 6.05588 16 6.27974 16 6.55588C16 6.83203 15.7762 7.05588 15.5 7.05588H13.5C13.2239 7.05588 13 6.83203 13 6.55588Z" fill="#222B31"/>
</g>
<defs>
<clipPath id="clip0_2210_595">
<rect width="17" height="18.59" fill="white"/>
</clipPath>
</defs>
</svg>
