<svg width="45" height="36" viewBox="0 0 45 36" fill="none" xmlns="http://www.w3.org/2000/svg">
<path d="M38.0757 2.99182C35.2256 1.59719 32.1398 0.58495 28.9254 0.000103469C28.8972 -0.000842641 28.8692 0.00470909 28.8433 0.0163684C28.8174 0.0280277 28.7942 0.0455115 28.7754 0.0675863C28.3897 0.809892 27.9397 1.77714 27.6397 2.51944C24.2303 1.97959 20.7631 1.97959 17.3537 2.51944C17.0537 1.75464 16.6037 0.809892 16.1965 0.0675863C16.1751 0.0225981 16.1108 0.000103469 16.0465 0.000103469C12.8321 0.58495 9.76776 1.59719 6.89626 2.99182C6.87483 2.99182 6.8534 3.01431 6.83197 3.03681C1.00324 12.1919 -0.603951 21.0996 0.188928 29.9173C0.188928 29.9623 0.210357 30.0072 0.253216 30.0297C4.11046 32.999 7.81771 34.7985 11.4821 35.9907C11.5464 36.0132 11.6107 35.9907 11.6321 35.9457C12.4893 34.7085 13.2607 33.4039 13.925 32.0317C13.9679 31.9417 13.925 31.8518 13.8393 31.8293C12.6178 31.3344 11.4607 30.7496 10.3249 30.0747C10.2392 30.0297 10.2392 29.8948 10.3035 29.8273C10.5392 29.6473 10.7749 29.4449 11.0107 29.2649C11.0535 29.22 11.1178 29.22 11.1607 29.2424C18.5323 32.774 26.4825 32.774 33.7684 29.2424C33.8113 29.22 33.8756 29.22 33.9184 29.2649C34.1541 29.4674 34.3899 29.6473 34.6256 29.8498C34.7113 29.9173 34.7113 30.0522 34.6042 30.0972C33.4898 30.7945 32.3112 31.3569 31.0898 31.8518C31.0041 31.8743 30.9826 31.9867 31.0041 32.0542C31.6898 33.4264 32.4612 34.731 33.297 35.9682C33.3613 35.9907 33.4256 36.0132 33.4898 35.9907C37.1757 34.7985 40.8829 32.999 44.7401 30.0297C44.783 30.0072 44.8044 29.9623 44.8044 29.9173C45.7473 19.7274 43.2401 10.8873 38.1614 3.03681C38.14 3.01431 38.1185 2.99182 38.0757 2.99182ZM15.0393 24.5412C12.8321 24.5412 10.9892 22.4042 10.9892 19.7724C10.9892 17.1406 12.7893 15.0037 15.0393 15.0037C17.3108 15.0037 19.1109 17.1631 19.0894 19.7724C19.0894 22.4042 17.2894 24.5412 15.0393 24.5412ZM29.9755 24.5412C27.7683 24.5412 25.9254 22.4042 25.9254 19.7724C25.9254 17.1406 27.7254 15.0037 29.9755 15.0037C32.247 15.0037 34.047 17.1631 34.0256 19.7724C34.0256 22.4042 32.247 24.5412 29.9755 24.5412Z" fill="#5591DA"/>
</svg>
