<svg width="16" height="18" viewBox="0 0 16 18" fill="none" xmlns="http://www.w3.org/2000/svg">
<path fill-rule="evenodd" clip-rule="evenodd" d="M8 3.55588C4.96243 3.55588 2.5 6.01832 2.5 9.05588C2.5 12.0934 4.96243 14.5559 8 14.5559C11.0376 14.5559 13.5 12.0934 13.5 9.05588C13.5 6.01832 11.0376 3.55588 8 3.55588ZM1.5 9.05588C1.5 5.46603 4.41015 2.55588 8 2.55588C11.5899 2.55588 14.5 5.46603 14.5 9.05588C14.5 12.6457 11.5899 15.5559 8 15.5559C4.41015 15.5559 1.5 12.6457 1.5 9.05588Z" fill="#222B31"/>
<path fill-rule="evenodd" clip-rule="evenodd" d="M3.40279 4.45859C3.59806 4.26332 3.91464 4.26332 4.1099 4.45859L12.5974 12.9461C12.7927 13.1413 12.7927 13.4579 12.5974 13.6532C12.4021 13.8484 12.0856 13.8484 11.8903 13.6532L3.40279 5.16569C3.20753 4.97043 3.20753 4.65385 3.40279 4.45859Z" fill="#222B31"/>
</svg>
