<svg width="20" height="32" viewBox="0 0 20 32" fill="none" xmlns="http://www.w3.org/2000/svg">
<g clip-path="url(#clip0_2202_621)">
<g clip-path="url(#clip1_2202_621)">
<path d="M17.6799 17.1087C17.5521 18.3405 16.7139 19.4334 15.3574 20.1823C14.0028 20.9301 12.1726 21.3057 10.1913 21.1002C8.21009 20.8947 6.49596 20.1514 5.32373 19.1414C4.14985 18.1301 3.55378 16.8884 3.68157 15.6565C3.80935 14.4247 4.6476 13.3318 6.00409 12.5829C7.35866 11.8351 9.18886 11.4595 11.1701 11.665C13.1514 11.8705 14.8655 12.6138 16.0377 13.6238C17.2116 14.6352 17.8077 15.8768 17.6799 17.1087Z" fill="#F489A3" stroke="#E63B51"/>
<path fill-rule="evenodd" clip-rule="evenodd" d="M14.9423 10.2359L7.77176 9.492L7.08105 16.1504L7.11759 16.1542C7.25967 17.2066 8.67201 18.1508 10.4782 18.3382C12.2843 18.5255 13.8604 17.8913 14.2155 16.8905L14.2516 16.8942L14.2805 16.6152C14.2815 16.6073 14.2824 16.5994 14.2832 16.5915C14.284 16.5836 14.2847 16.5757 14.2854 16.5678L14.9423 10.2359Z" fill="#F489A3"/>
<mask id="mask0_2202_621" style="mask-type:luminance" maskUnits="userSpaceOnUse" x="7" y="9" width="8" height="10">
<path fill-rule="evenodd" clip-rule="evenodd" d="M14.9423 10.2359L7.77176 9.492L7.08105 16.1504L7.11759 16.1542C7.25967 17.2066 8.67201 18.1508 10.4782 18.3382C12.2843 18.5255 13.8604 17.8913 14.2155 16.8905L14.2516 16.8942L14.2805 16.6152C14.2815 16.6073 14.2824 16.5994 14.2832 16.5915C14.284 16.5836 14.2847 16.5757 14.2854 16.5678L14.9423 10.2359Z" fill="white"/>
</mask>
<g mask="url(#mask0_2202_621)">
<path d="M7.77196 9.492L7.87514 8.49734L6.88048 8.39417L6.7773 9.38882L7.77196 9.492ZM14.9425 10.2359L15.9371 10.339L16.0403 9.34438L15.0457 9.24118L14.9425 10.2359ZM7.08125 16.1504L6.08659 16.0472L5.9834 17.0418L6.97806 17.145L7.08125 16.1504ZM7.11779 16.1542L8.1088 16.0204L8.00355 15.2407L7.22097 15.1595L7.11779 16.1542ZM14.2157 16.8905L14.3188 15.8958L13.5363 15.8146L13.2732 16.5561L14.2157 16.8905ZM14.2518 16.8942L14.1486 17.8889L15.1432 17.9921L15.2464 16.9974L14.2518 16.8942ZM14.2807 16.6152L13.2881 16.4936L13.287 16.5028L13.286 16.512L14.2807 16.6152ZM14.2856 16.5678L13.291 16.4646L13.29 16.4738L13.2892 16.483L14.2856 16.5678ZM7.66878 10.4867L14.8393 11.2305L15.0457 9.24118L7.87514 8.49734L7.66878 10.4867ZM8.07591 16.2535L8.76662 9.59518L6.7773 9.38882L6.08659 16.0472L8.07591 16.2535ZM7.22097 15.1595L7.18443 15.1557L6.97806 17.145L7.01461 17.1488L7.22097 15.1595ZM10.5815 17.3435C9.81487 17.264 9.1676 17.0261 8.72221 16.7342C8.25602 16.4286 8.12614 16.1488 8.1088 16.0204L6.12678 16.2879C6.25151 17.2119 6.89885 17.9304 7.62589 18.4069C8.37373 18.8971 9.3357 19.225 10.3752 19.3328L10.5815 17.3435ZM13.2732 16.5561C13.2299 16.6783 13.0453 16.9255 12.5263 17.1288C12.0305 17.3231 11.3482 17.423 10.5815 17.3435L10.3752 19.3328C11.4146 19.4406 12.4234 19.3172 13.256 18.991C14.0653 18.6739 14.8464 18.1035 15.1581 17.2248L13.2732 16.5561ZM14.3549 15.8995L14.3188 15.8958L14.1125 17.8851L14.1486 17.8889L14.3549 15.8995ZM13.286 16.512L13.2571 16.791L15.2464 16.9974L15.2754 16.7184L13.286 16.512ZM13.2887 16.4883C13.2885 16.4901 13.2883 16.4918 13.2881 16.4936L15.2733 16.7368C15.275 16.7228 15.2766 16.7088 15.278 16.6947L13.2887 16.4883ZM13.2892 16.483C13.2891 16.4848 13.2889 16.4866 13.2887 16.4883L15.278 16.6947C15.2795 16.6806 15.2808 16.6666 15.282 16.6525L13.2892 16.483ZM13.9478 10.1327L13.291 16.4646L15.2803 16.671L15.9371 10.339L13.9478 10.1327Z" fill="#E63B51"/>
</g>
<path d="M17.4243 6.86947C17.1834 9.19177 14.5348 11.0086 11.2733 10.6703C8.01184 10.332 5.79258 8.01013 6.03349 5.68783C6.2744 3.36553 8.92299 1.54865 12.1845 1.88698C15.4459 2.22532 17.6652 4.54717 17.4243 6.86947Z" fill="#F489A3" stroke="#E63B51"/>
<path d="M10.4658 21.6313L9.16211 21.4961L8.28302 29.9704L9.58675 30.1056L10.4658 21.6313Z" fill="black"/>
</g>
</g>
<defs>
<clipPath id="clip0_2202_621">
<rect width="19.0015" height="30.9988" fill="white" transform="translate(0.840332 0.611908)"/>
</clipPath>
<clipPath id="clip1_2202_621">
<rect width="19.0015" height="30.9988" fill="white" transform="translate(0.840332 0.611908)"/>
</clipPath>
</defs>
</svg>
